<?xml version="1.0" encoding="UTF-8"?>
<!-- Generator: visioncortex VTracer 0.6.1 -->
<svg version="1.1" xmlns="http://www.w3.org/2000/svg" width="1252" height="1280">
<path d="M0 0 C413.16 0 826.32 0 1252 0 C1252 422.4 1252 844.8 1252 1280 C838.84 1280 425.68 1280 0 1280 C0 857.6 0 435.2 0 0 Z " fill="#F6F9F8" transform="translate(0,0)"/>
<path d="M0 0 C413.16 0 826.32 0 1252 0 C1252 422.4 1252 844.8 1252 1280 C838.84 1280 425.68 1280 0 1280 C0 857.6 0 435.2 0 0 Z M204.125 15.125 C203.497146 15.72320557 202.86929199 16.32141113 202.22241211 16.93774414 C196.16028542 22.75119856 190.23301101 28.70725339 184.34228516 34.69384766 C181.02905827 38.04769072 177.70226723 41.31100719 174.12109375 44.37890625 C168.9728798 48.80767488 164.26486891 53.66676855 159.5 58.5 C154.04881821 64.029391 148.63675294 69.49709759 142.66772461 74.47167969 C138.68599604 78.12057748 135.39812694 82.57349766 134.76171875 88.05078125 C134.73722656 88.79714844 134.71273437 89.54351562 134.6875 90.3125 C134.65011719 91.05113281 134.61273438 91.78976563 134.57421875 92.55078125 C135.69522021 98.99911077 141.2995908 103.52136995 145.8125 107.875 C149.44888286 111.40431379 152.99566984 114.93750567 156.29296875 118.7890625 C160.7546311 123.96426621 165.63682951 128.70561552 170.5 133.5 C175.9105141 138.83398632 181.21172831 144.16044781 186.15429688 149.93164062 C190.06549052 154.31466081 194.31830624 158.37745325 198.5 162.5 C203.9105141 167.83398632 209.21172831 173.16044781 214.15429688 178.93164062 C218.06549052 183.31466081 222.31830624 187.37745325 226.5 191.5 C231.92476902 196.84803962 237.2391537 202.18918146 242.19433594 207.97607422 C245.88645169 212.11447871 249.91829056 215.92964715 253.875 219.8125 C270.766875 236.53375 270.766875 236.53375 274 243 C273.41734375 243.25394531 272.8346875 243.50789062 272.234375 243.76953125 C269.75811967 245.13320333 268.19479374 246.64225203 266.25 248.6875 C263.62996663 251.38004352 260.98425817 253.93826379 258.125 256.375 C251.95098961 261.69320697 245.73422271 267.33531754 241 274 C237.21720806 272.7041647 234.88854082 271.25321057 232.125 268.375 C231.20074219 267.42753906 231.20074219 267.42753906 230.2578125 266.4609375 C228.42654853 264.46492314 226.66075407 262.43867501 224.8984375 260.3828125 C220.35471808 255.16693805 215.4236354 250.35399417 210.5 245.5 C205.0894859 240.16601368 199.78827169 234.83955219 194.84570312 229.06835938 C190.93450948 224.68533919 186.68169376 220.62254675 182.5 216.5 C177.0894859 211.16601368 171.78827169 205.83955219 166.84570312 200.06835938 C162.93450948 195.68533919 158.68169376 191.62254675 154.5 187.5 C149.0894859 182.16601368 143.78827169 176.83955219 138.84570312 171.06835938 C134.93450948 166.68533919 130.68169376 162.62254675 126.5 158.5 C120.98602481 153.06401597 115.52887813 147.64948717 110.50390625 141.75317383 C105.93731695 136.42968718 101.9679023 131.9559024 95 130 C86.88255725 129.8690735 81.51007222 133.81377373 75.62109375 139.15942383 C73.18944415 141.55182908 70.80502043 143.98165358 68.4375 146.4375 C59.34718146 155.77727038 59.34718146 155.77727038 55.06640625 159.44140625 C49.93005089 163.84226059 45.24566336 168.68624964 40.5 173.5 C35.10084973 178.97661297 29.71126844 184.36548992 23.87158203 189.37304688 C20.69653415 192.13309371 17.6860648 195.05080783 14.6875 198 C14.08099609 198.5775 13.47449219 199.155 12.84960938 199.75 C8.02953563 204.50113979 5.35154126 208.66035804 4.625 215.5625 C5.42638332 222.90851374 9.64772086 227.0202998 14.75 231.875 C18.40149821 235.39213572 21.96931797 238.90164402 25.265625 242.7578125 C29.88545535 248.12173317 34.96276379 253.03366323 40 258 C45.5768291 263.49833486 51.07773614 268.99392784 56.171875 274.94921875 C60.0751726 279.32791798 64.32437479 283.38343597 68.5 287.5 C73.9105141 292.83398632 79.21172831 298.16044781 84.15429688 303.93164062 C88.06549052 308.31466081 92.31830624 312.37745325 96.5 316.5 C106.66084239 326.51712468 106.66084239 326.51712468 110.46875 330.96875 C115.00933836 336.27057041 120.03315519 341.10306387 125 346 C130.63506666 351.55575272 136.18995379 357.1106268 141.33300781 363.13232422 C143.11540708 365.12930056 144.98980798 366.97243407 146.9296875 368.81640625 C147.90421875 369.74549805 147.90421875 369.74549805 148.8984375 370.69335938 C150.2305037 371.95303067 151.57191161 373.20288729 152.921875 374.44335938 C155.93877512 377.3481859 157.78367045 379.40833527 159.23828125 383.38671875 C158.90198634 388.48627265 156.84457806 391.88342299 154.3125 396.25 C142.41475892 417.89065195 133.36677 440.79971348 125 464 C124.45134277 465.5159375 124.45134277 465.5159375 123.89160156 467.0625 C110.49632874 504.49379759 102.47914606 543.54839379 98 583 C97.91279694 583.73830048 97.82559387 584.47660095 97.73574829 585.23727417 C95.83700049 601.6937149 95.63833406 618.12663572 95.68194199 634.67192459 C95.68757529 636.841495 95.69040036 639.01105761 95.69302368 641.18063354 C95.72950066 661.92676694 96.12262419 682.41656752 99 703 C99.24943359 704.89975586 99.24943359 704.89975586 99.50390625 706.83789062 C103.62794975 737.79876538 110.49269316 768.25026797 120 798 C120.31404785 799.00353516 120.6280957 800.00707031 120.95166016 801.04101562 C132.91598119 839.18309759 149.87239554 875.67894263 170.1875 910.0625 C170.84073242 911.16843506 171.49396484 912.27437012 172.16699219 913.41381836 C176.5566272 920.76507488 181.17805525 927.92540307 186 935 C186.7568811 936.11048706 186.7568811 936.11048706 187.52905273 937.2434082 C201.31961999 957.30086818 216.59134354 976.03917333 233 994 C233.86625 994.9590625 234.7325 995.918125 235.625 996.90625 C241.50977113 1003.38662513 247.57139865 1009.67413949 253.75 1015.875 C254.79510742 1016.92699585 254.79510742 1016.92699585 255.86132812 1018.00024414 C259.84054747 1021.9676767 263.92312417 1025.75364292 268.17822266 1029.42333984 C270.6040352 1031.52276325 272.95612595 1033.69819411 275.3125 1035.875 C280.7168471 1040.7920699 286.27806007 1045.45893579 292 1050 C292.65387695 1050.52110352 293.30775391 1051.04220703 293.98144531 1051.57910156 C303.73119533 1059.32844894 313.62875922 1066.73061974 323.98583984 1073.64794922 C326.01806412 1075.01212595 328.03517736 1076.39656481 330.05078125 1077.78515625 C406.56497464 1130.14118764 496.71873673 1160.16435087 589 1167 C590.19302734 1167.08894531 590.19302734 1167.08894531 591.41015625 1167.1796875 C654.44499333 1171.59949244 719.64805481 1164.95371715 780 1146 C780.65295044 1145.79546204 781.30590088 1145.59092407 781.9786377 1145.38018799 C810.50377941 1136.42088758 837.82306453 1125.48158471 865 1113 C869.00517282 1116.98025787 873.00689955 1120.96393867 877.00561523 1124.95068359 C878.36342127 1126.30349355 879.72212751 1127.65540066 881.08178711 1129.00634766 C894.0729563 1141.91641149 894.0729563 1141.91641149 899.27905273 1148.05859375 C903.29022923 1152.5836151 907.69509567 1156.75568748 912 1161 C917.5768291 1166.49833486 923.07773614 1171.99392784 928.171875 1177.94921875 C932.0751726 1182.32791798 936.32437479 1186.38343597 940.5 1190.5 C945.9105141 1195.83398632 951.21172831 1201.16044781 956.15429688 1206.93164062 C960.06549052 1211.31466081 964.31830624 1215.37745325 968.5 1219.5 C978.66134373 1229.51761892 978.66134373 1229.51761892 982.43359375 1233.93359375 C987.15597714 1239.44792098 992.39837419 1244.467262 997.5625 1249.5625 C999.58767763 1251.56075646 1001.6104373 1253.56137226 1003.62890625 1255.56640625 C1004.10871445 1256.04271988 1004.58852264 1256.51903351 1005.08287048 1257.00978088 C1007.66205737 1259.59139328 1010.1135889 1262.22471606 1012.4453125 1265.03125 C1016.27083965 1269.47681672 1020.51161894 1272.39557754 1026.3671875 1273.41015625 C1032.01398876 1273.62880344 1036.28448788 1272.36166178 1040.66186523 1268.5546875 C1042.43876032 1266.82078386 1044.16366989 1265.04860415 1045.875 1263.25 C1049.41253817 1259.57731993 1052.94570614 1255.99185413 1056.8203125 1252.671875 C1061.80853425 1248.37562611 1066.38253519 1243.6874264 1071 1239 C1080.48633436 1229.3699333 1080.48633436 1229.3699333 1084.84765625 1225.64453125 C1090.09352898 1221.14524237 1094.92843496 1216.22107027 1099.80249023 1211.32788086 C1101.45507182 1209.66987045 1103.11302199 1208.01736024 1104.77148438 1206.36523438 C1105.82584219 1205.31021689 1106.87989038 1204.25488986 1107.93359375 1203.19921875 C1108.42830673 1202.70653 1108.92301971 1202.21384125 1109.432724 1201.70622253 C1113.46053881 1197.65047923 1114.21893227 1195.58425412 1114.4375 1189.875 C1114.37730346 1183.04269284 1112.77393032 1179.73186926 1108 1175 C1107.43539063 1174.41992188 1106.87078125 1173.83984375 1106.2890625 1173.2421875 C1105.16040713 1172.10331806 1104.01940964 1170.97651495 1102.86499023 1169.86376953 C1101.11913957 1168.11906159 1099.52692096 1166.32100021 1097.93359375 1164.4375 C1093.38264067 1159.19784848 1088.43973333 1154.3698644 1083.5 1149.5 C1078.0894859 1144.16601368 1072.78827169 1138.83955219 1067.84570312 1133.06835938 C1063.93450948 1128.68533919 1059.68169376 1124.62254675 1055.5 1120.5 C1045.33915761 1110.48287532 1045.33915761 1110.48287532 1041.53125 1106.03125 C1036.99066164 1100.72942959 1031.96684481 1095.89693613 1027 1091 C1021.4231709 1085.50166514 1015.92226386 1080.00607216 1010.828125 1074.05078125 C1006.9248274 1069.67208202 1002.67562521 1065.61656403 998.5 1061.5 C992.94131811 1056.01994162 987.45079444 1050.56316328 982.40625 1044.60058594 C980.89395195 1042.81642706 980.89395195 1042.81642706 978.5 1040.75 C978.005 1040.1725 977.51 1039.595 977 1039 C977.5718814 1034.34333534 980.77377623 1032.12091846 984.125 1029.1875 C985.3200134 1028.11570057 986.51403278 1027.04279176 987.70703125 1025.96875 C988.56675537 1025.19917969 988.56675537 1025.19917969 989.44384766 1024.4140625 C991.29639923 1022.73066452 993.06521956 1020.9795825 994.8125 1019.1875 C997.78174295 1016.15161568 1000.94932982 1013.40246161 1004.203125 1010.67578125 C1006.07674426 1008.92842764 1007.52511967 1007.0894138 1009 1005 C1012.88949634 1005.55313379 1014.62670023 1007.28128993 1017.3125 1010.0625 C1018.03050781 1010.79597656 1018.74851562 1011.52945313 1019.48828125 1012.28515625 C1021.41300451 1014.36553365 1023.26351943 1016.46968378 1025.10546875 1018.62109375 C1029.79777459 1024.01342313 1034.91331259 1028.98490806 1040 1034 C1050.65583021 1044.50584869 1050.65583021 1044.50584869 1054.46875 1048.96875 C1059.15809771 1054.45082077 1064.36845926 1059.43725106 1069.5 1064.5 C1075.2393421 1070.1624023 1080.91689967 1075.80076792 1086.15820312 1081.93554688 C1090.22316151 1086.49192122 1094.65304197 1090.7142257 1099 1095 C1109.65519096 1105.50521843 1109.65519096 1105.50521843 1113.49609375 1109.99609375 C1118.04399406 1115.31303466 1123.0843019 1120.15400829 1128.0625 1125.0625 C1138.79511898 1135.64538638 1138.79511898 1135.64538638 1142.48828125 1140.03515625 C1145.8544578 1144.00860571 1149.68059163 1147.35522323 1155 1148 C1161.6708847 1148.49413961 1165.59038593 1146.96313678 1170.76171875 1142.75 C1171.74450119 1141.84140255 1172.71931712 1140.92413882 1173.6875 1140 C1174.49803833 1139.2407019 1174.49803833 1139.2407019 1175.32495117 1138.46606445 C1181.41798597 1132.70416367 1187.31572625 1126.73755315 1193.19995117 1120.76367188 C1196.67867905 1117.24576666 1200.1595175 1113.80152761 1203.91796875 1110.58203125 C1209.05523253 1106.16891831 1213.74817729 1101.31999807 1218.5 1096.5 C1223.93999745 1090.9819538 1229.34686208 1085.52209957 1235.28344727 1080.53442383 C1239.1026044 1077.12048519 1243.70243514 1072.94150185 1244.23828125 1067.64453125 C1244.43454944 1060.15535032 1243.5315334 1055.8025174 1238.421875 1050.30078125 C1237.27313042 1049.14944941 1236.10830928 1048.01391986 1234.92749023 1046.89550781 C1233.14573918 1045.14332096 1231.5371358 1043.34151662 1229.92578125 1041.43359375 C1225.37917239 1036.19344461 1220.43794662 1031.36810296 1215.5 1026.5 C1205.33915761 1016.48287532 1205.33915761 1016.48287532 1201.53125 1012.03125 C1196.99066164 1006.72942959 1191.96684481 1001.89693613 1187 997 C1181.4231709 991.50166514 1175.92226386 986.00607216 1170.828125 980.05078125 C1166.9248274 975.67208202 1162.67562521 971.61656403 1158.5 967.5 C1153.0894859 962.16601368 1147.78827169 956.83955219 1142.84570312 951.06835938 C1138.93450948 946.68533919 1134.68169376 942.62254675 1130.5 938.5 C1120.33829595 928.48202585 1120.33829595 928.48202585 1116.5234375 924.01171875 C1111.6215261 918.28219309 1106.09993312 913.12612571 1100.66308594 907.90991211 C1099.24818055 906.54948105 1097.8465429 905.17529327 1096.4453125 903.80078125 C1095.61531738 902.99809814 1094.78532227 902.19541504 1093.93017578 901.3684082 C1091.80215047 898.75723016 1091.13861317 897.34793921 1091 894 C1091.72167969 891.88549805 1091.72167969 891.88549805 1092.921875 889.76171875 C1093.3645874 888.95492676 1093.8072998 888.14813477 1094.26342773 887.31689453 C1094.99928101 886.01534424 1094.99928101 886.01534424 1095.75 884.6875 C1124.48726948 831.71859558 1142.08057286 772.72704685 1150.75 713.25 C1150.85114105 712.56820679 1150.9522821 711.88641357 1151.05648804 711.18395996 C1154.44527242 688.07743594 1155.38132619 664.97756833 1155.31805801 641.64575195 C1155.31240903 639.52840092 1155.30959394 637.41105792 1155.30697632 635.29370117 C1155.26944304 614.39961867 1154.83054534 593.73360778 1152 573 C1151.91278687 572.34584106 1151.82557373 571.69168213 1151.73571777 571.0177002 C1149.12808745 551.48564745 1145.49087999 532.18779604 1141 513 C1140.75588379 511.9363623 1140.51176758 510.87272461 1140.26025391 509.77685547 C1124.90398961 443.70544016 1094.2231307 380.78900032 1054.30078125 326.16015625 C1052.72478386 323.99550109 1051.18427745 321.82599844 1049.66796875 319.62109375 C1043.89111576 311.25417182 1043.89111576 311.25417182 1035 307 C1028.2881086 306.8801448 1023.09376072 310.28140317 1018.16992188 314.6081543 C1016.40986124 316.33175369 1014.69677631 318.08912356 1013 319.875 C1009.51671255 323.49348354 1006.0368693 327.02107667 1002.21875 330.2890625 C997.03965785 334.75091525 992.2965253 339.63465799 987.5 344.5 C982.16601368 349.9105141 976.83955219 355.21172831 971.06835938 360.15429688 C966.68533919 364.06549052 962.62254675 368.31830624 958.5 372.5 C953.16601368 377.9105141 947.83955219 383.21172831 942.06835938 388.15429688 C937.68533919 392.06549052 933.62254675 396.31830624 929.5 400.5 C924.16601368 405.9105141 918.83955219 411.21172831 913.06835938 416.15429688 C908.68533919 420.06549052 904.62254675 424.31830624 900.5 428.5 C895.16601368 433.9105141 889.83955219 439.21172831 884.06835938 444.15429688 C879.68533919 448.06549052 875.62254675 452.31830624 871.5 456.5 C866.16601368 461.9105141 860.83955219 467.21172831 855.06835938 472.15429688 C850.68533919 476.06549052 846.62254675 480.31830624 842.5 484.5 C832.48287532 494.66084239 832.48287532 494.66084239 828.03125 498.46875 C822.72942959 503.00933836 817.89693613 508.03315519 813 513 C807.50166514 518.5768291 802.00607216 524.07773614 796.05078125 529.171875 C791.67208202 533.0751726 787.61656403 537.32437479 783.5 541.5 C778.16601368 546.9105141 772.83955219 552.21172831 767.06835938 557.15429688 C762.68533919 561.06549052 758.62254675 565.31830624 754.5 569.5 C744.48324993 579.66046241 744.48324993 579.66046241 740.11328125 583.40234375 C734.94018267 587.83698938 730.13141533 592.64596432 725.30737305 597.45239258 C723.68002785 599.0699271 722.04230393 600.67647534 720.40429688 602.28320312 C719.35611538 603.32486169 718.30856651 604.36715731 717.26171875 605.41015625 C716.77732834 605.88219986 716.29293793 606.35424347 715.79386902 606.84059143 C711.90148987 610.75867509 709.25298294 614.41156285 708.70703125 619.99755859 C708.74183594 621.03734863 708.77664063 622.07713867 708.8125 623.1484375 C708.83803955 624.31109131 708.8635791 625.47374512 708.88989258 626.67163086 C708.92622803 627.89374268 708.96256348 629.11585449 709 630.375 C709.34834908 655.17777287 703.66223894 675.15525369 686.34765625 693.6875 C670.69220762 709.10850763 651.70982277 716.75872155 629.8125 717.3125 C605.08825195 716.90759932 583.53379293 707.43299182 566 690 C551.16163237 673.48362633 545.96085611 652.18382679 546.61328125 630.5078125 C547.00537711 623.28681679 548.52115942 616.8127612 551 610 C551.37382813 608.94683594 551.74765625 607.89367187 552.1328125 606.80859375 C556.59825305 595.23097802 563.33938606 585.81694271 572 577 C572.52851562 576.45859375 573.05703125 575.9171875 573.6015625 575.359375 C583.06218578 566.52945994 595.63619027 560.42445898 608 557 C608.99241699 556.71310303 608.99241699 556.71310303 610.00488281 556.42041016 C615.57502318 555.04039894 620.87283738 554.89675076 626.5703125 555.015625 C627.72750038 555.03900185 627.72750038 555.03900185 628.9080658 555.06285095 C632.12792618 555.13645189 635.34653181 555.22040045 638.56494141 555.34277344 C648.96109889 556.12418947 648.96109889 556.12418947 658.3984375 552.69921875 C659.64101933 551.50854268 660.83703315 550.26855319 662 549 C663.35055094 547.69076418 664.70119556 546.38162389 666.05325317 545.07394409 C668.57469545 542.60872939 671.03409419 540.08305303 673.5 537.5625 C675.48607156 535.53948276 677.47546464 533.51981626 679.46875 531.50390625 C679.95150391 531.01556305 680.43425781 530.52721985 680.93164062 530.02407837 C684.14324267 526.79891567 687.47602667 523.79216705 690.93554688 520.83959961 C695.49389077 516.7777357 699.71465012 512.34652754 704 508 C709.49833486 502.4231709 714.99392784 496.92226386 720.94921875 491.828125 C725.32791798 487.9248274 729.38343597 483.67562521 733.5 479.5 C738.83398632 474.0894859 744.16044781 468.78827169 749.93164062 463.84570312 C754.31466081 459.93450948 758.37745325 455.68169376 762.5 451.5 C767.83398632 446.0894859 773.16044781 440.78827169 778.93164062 435.84570312 C783.31466081 431.93450948 787.37745325 427.68169376 791.5 423.5 C796.83398632 418.0894859 802.16044781 412.78827169 807.93164062 407.84570312 C812.31466081 403.93450948 816.37745325 399.68169376 820.5 395.5 C825.83398632 390.0894859 831.16044781 384.78827169 836.93164062 379.84570312 C841.31466081 375.93450948 845.37745325 371.68169376 849.5 367.5 C854.83398632 362.0894859 860.16044781 356.78827169 865.93164062 351.84570312 C870.31466081 347.93450948 874.37745325 343.68169376 878.5 339.5 C883.83398632 334.0894859 889.16044781 328.78827169 894.93164062 323.84570312 C899.31466081 319.93450948 903.37745325 315.68169376 907.5 311.5 C912.83398632 306.0894859 918.16044781 300.78827169 923.93164062 295.84570312 C928.31466081 291.93450948 932.37745325 287.68169376 936.5 283.5 C941.90713943 278.01528325 947.30540248 272.62200398 953.15527344 267.60888672 C956.18456478 264.9668764 959.03204387 262.1520877 961.875 259.3125 C962.4421875 258.75755859 963.009375 258.20261719 963.59375 257.63085938 C967.97744088 253.26275033 970.27912093 250.19038301 970.5 243.8125 C970.31226364 237.36972959 968.43035256 233.62673344 964 229 C960.11702146 225.60496189 956.07920915 222.4926811 951.9296875 219.43261719 C950.05873639 218.04360642 948.21446068 216.62567235 946.375 215.1953125 C927.94798354 200.95890914 908.24771612 188.46656375 888 177 C887.08379883 176.47873535 886.16759766 175.9574707 885.22363281 175.42041016 C821.29058824 139.27612896 750.87415655 117.98839754 678 110 C676.97358398 109.88140625 675.94716797 109.7628125 674.88964844 109.640625 C620.99894848 103.60285401 564.8402003 108.41383159 512 120 C510.95166992 120.22848633 509.90333984 120.45697266 508.82324219 120.69238281 C473.21513641 128.63035873 437.42342458 140.43344449 404.640625 156.5546875 C403.48554443 157.12243896 402.33046387 157.69019043 401.14038086 158.27514648 C398.98239224 159.35311175 396.83395868 160.45050752 394.69750977 161.57055664 C393.75190186 162.05129639 392.80629395 162.53203613 391.83203125 163.02734375 C391.01452393 163.45781006 390.1970166 163.88827637 389.35473633 164.33178711 C387 165 387 165 384.51391602 164.41870117 C381.49515798 162.71509789 379.38400144 160.73890999 376.9453125 158.2734375 C376.48067596 157.8069278 376.01603943 157.34041809 375.537323 156.85977173 C374.55731711 155.87306628 373.58090416 154.88278073 372.60791016 153.88916016 C371.14329637 152.39368193 369.66856321 150.90886066 368.19140625 149.42578125 C364.16507301 145.3657463 360.18437626 141.28895784 356.4609375 136.9453125 C352.09085175 131.85317859 347.27556358 127.20801671 342.5 122.5 C337.0894859 117.16601368 331.78827169 111.83955219 326.84570312 106.06835938 C322.93450948 101.68533919 318.68169376 97.62254675 314.5 93.5 C304.33915761 83.48287532 304.33915761 83.48287532 300.53125 79.03125 C295.99066164 73.72942959 290.96684481 68.89693613 286 64 C280.4231709 58.50166514 274.92226386 53.00607216 269.828125 47.05078125 C265.9248274 42.67208202 261.67562521 38.61656403 257.5 34.5 C251.97395933 29.05212115 246.53163297 23.61339346 241.47949219 17.71972656 C239.52128221 15.44354982 237.47485881 13.27067391 235.375 11.125 C234.30378906 10.01511719 234.30378906 10.01511719 233.2109375 8.8828125 C229.88003648 6.04625015 227.00040616 5.11325353 222.6875 4.625 C214.94148954 5.41272988 209.54254688 9.84030643 204.125 15.125 Z " fill="#000100" transform="translate(0,0)"/>
<path d="M0 0 C3.86898611 0.32036191 5.69708606 2.35417615 8.3125 5.0625 C9.03050781 5.79597656 9.74851563 6.52945313 10.48828125 7.28515625 C12.41300451 9.36553365 14.26351943 11.46968378 16.10546875 13.62109375 C20.79777459 19.01342313 25.91331259 23.98490806 31 29 C36.5768291 34.49833486 42.07773614 39.99392784 47.171875 45.94921875 C51.0751726 50.32791798 55.32437479 54.38343597 59.5 58.5 C69.66084239 68.51712468 69.66084239 68.51712468 73.46875 72.96875 C78.00933836 78.27057041 83.03315519 83.10306387 88 88 C93.5768291 93.49833486 99.07773614 98.99392784 104.171875 104.94921875 C108.0751726 109.32791798 112.32437479 113.38343597 116.5 117.5 C121.89210127 122.81583393 127.18848591 128.1214071 132.11865234 133.86962891 C135.79767589 138.03562417 139.69321375 141.99483853 143.59790039 145.94799805 C144.5814597 146.94828065 145.55959948 147.95391875 146.5324707 148.96459961 C147.95883945 150.44576455 149.40101 151.90975978 150.84765625 153.37109375 C151.69336182 154.23661865 152.53906738 155.10214355 153.41040039 155.99389648 C156.45739255 158.35433153 158.15638711 158.95181585 162 159 C164.91462158 157.97708265 164.91462158 157.97708265 167.76171875 156.23828125 C168.86660645 155.61977295 169.97149414 155.00126465 171.10986328 154.36401367 C171.69189514 154.0296933 172.273927 153.69537292 172.87359619 153.35092163 C175.98710916 151.5685012 179.13536136 149.85007566 182.28515625 148.1328125 C182.92914368 147.7811351 183.5731311 147.4294577 184.2366333 147.06712341 C263.45943669 104.17266935 357.79851737 89.27905269 546 114 C574.92166053 122.73876744 602.72631792 134.16397091 629.75 147.625 C630.53807037 148.01656281 631.32614075 148.40812561 632.13809204 148.81155396 C646.35989979 155.90635823 660.19676439 163.66645621 673.5 172.375 C674.18304199 172.81924316 674.86608398 173.26348633 675.56982422 173.72119141 C682.87860733 178.51315297 690.03037849 183.53603752 697.11035156 188.65917969 C698.38082589 189.56065837 699.67005578 190.43621526 700.97558594 191.28613281 C704.73530366 193.77643629 706.85800845 195.55892174 708 200 C705.67104031 202.35852656 703.3360189 204.71096674 701 207.0625 C700.35160156 207.71927734 699.70320312 208.37605469 699.03515625 209.05273438 C695.8544706 212.24916599 692.64787526 215.3477853 689.21875 218.27734375 C683.68656562 223.04709696 678.62638738 228.30395611 673.5 233.5 C667.77286183 239.30495758 662.06853356 245.04519279 655.85888672 250.34179688 C653.84004771 252.14268399 651.97799181 254.04029916 650.11328125 256 C649.48486328 256.65871094 648.85644531 257.31742187 648.20898438 257.99609375 C646.92349236 259.35439942 645.64769891 260.72193768 644.38085938 262.09765625 C639.73820452 266.91758482 639.73820452 266.91758482 636.55078125 267.2734375 C632.75363292 265.3777708 629.34609887 263.05845227 625.875 260.625 C597.96834189 241.62778833 567.68566373 227.39781097 536 216 C534.84935059 215.57992676 533.69870117 215.15985352 532.51318359 214.72705078 C445.48470873 183.20046661 345.51682665 187.56312318 233.88183594 232.44970703 C203.25994741 246.98319935 174.91297797 265.16693771 149 287 C148.4829248 287.4321582 147.96584961 287.86431641 147.43310547 288.30957031 C134.00231462 299.55008474 120.9374008 311.26244887 109.37158203 324.44140625 C107.91466591 326.09696918 106.44007698 327.73574871 104.96484375 329.375 C54.04113181 386.47862237 21.51317081 459.26248396 9.6875 534.5625 C9.54022461 535.49835937 9.39294922 536.43421875 9.24121094 537.3984375 C6.5164144 556.05723162 5.62163585 574.66213217 5.6875 593.5 C5.68932281 594.58984192 5.69114563 595.67968384 5.69302368 596.80255127 C5.74230622 614.37442544 6.39353253 631.59642599 9 649 C9.17160645 650.15435547 9.34321289 651.30871094 9.52001953 652.49804688 C15.26822004 689.83309717 25.70706759 726.85382412 42 761 C42.55171875 762.16096191 43.1034375 763.32192383 43.671875 764.51806641 C54.30758555 786.78390183 66.10150642 808.25887832 81 828 C81.60207275 828.80606689 81.60207275 828.80606689 82.21630859 829.62841797 C88.06519247 837.45086583 94.2109944 844.99471868 100.60205078 852.38110352 C101.55529002 853.48500317 102.5013103 854.59516796 103.44091797 855.71069336 C108.67261737 861.83891216 114.33776993 867.52388477 120.03222656 873.2175293 C121.73794598 874.92543056 123.43549027 876.64118045 125.1328125 878.35742188 C131.04494305 884.29956242 137.03978015 889.87204433 143.60546875 895.09350586 C145.63478388 896.70921975 147.5991633 898.36129227 149.5390625 900.08203125 C158.22222854 907.78157353 167.3766259 914.52376039 177 921 C178.34191406 921.90419678 178.34191406 921.90419678 179.7109375 922.82666016 C192.15951814 931.17189872 204.72339773 939.04520285 218 946 C218.86044922 946.45938965 219.72089844 946.9187793 220.60742188 947.39208984 C258.76680826 967.68372948 300.36832079 980.26932984 342.9375 987.25 C343.85829346 987.40122314 344.77908691 987.55244629 345.7277832 987.70825195 C348.81395694 988.18489045 351.90257938 988.60256279 355 989 C355.66332336 989.08720306 356.32664673 989.17440613 357.0100708 989.26425171 C371.3874207 991.09941332 385.69719138 991.34069545 400.17822266 991.31567383 C403.96676835 991.3125276 407.75451956 991.33601938 411.54296875 991.36132812 C452.25312991 991.4661079 492.30094288 984.51407433 531 972 C531.67272949 971.7844043 532.34545898 971.56880859 533.03857422 971.34667969 C556.97853114 963.57171737 580.0149025 953.20018087 602 941 C602.71752441 940.60248535 603.43504883 940.2049707 604.17431641 939.79541016 C625.54052728 927.80213792 645.49168793 912.9966439 664 897 C665.11181641 896.0409375 665.11181641 896.0409375 666.24609375 895.0625 C668.17440249 893.38638456 670.0878491 891.69450771 672 890 C672.69609375 889.39671875 673.3921875 888.7934375 674.109375 888.171875 C679.84278441 883.13109223 685.28071906 877.82503557 690.6875 872.4375 C691.400271 871.72932129 692.11304199 871.02114258 692.84741211 870.29150391 C697.43538308 865.69020976 701.77678544 860.93674056 706 856 C706.87752805 854.99081923 707.75512613 853.98169934 708.6328125 852.97265625 C723.41414804 835.71231929 736.27841694 817.45379367 748 798 C748.75347804 796.78619241 749.50740166 795.57266134 750.26171875 794.359375 C778.68315217 748.05264004 794.19837076 694.59611153 801 641 C801.0932254 640.27895081 801.18645081 639.55790161 801.28250122 638.81500244 C803.15124527 623.92684321 803.35921823 609.11540661 803.3125 594.125 C803.31067719 592.9117807 803.30885437 591.6985614 803.30697632 590.44857788 C803.2606537 572.12669954 802.80214668 554.13738471 800 536 C799.72663818 534.21553467 799.72663818 534.21553467 799.44775391 532.39501953 C798.15803795 524.22250866 796.6626266 516.10449473 795 508 C794.82807129 507.14954102 794.65614258 506.29908203 794.47900391 505.42285156 C785.20584335 460.96704303 766.13337437 414.1403846 740.01171875 377.05859375 C739 375 739 375 739.12011719 373.20849609 C740.39066432 370.01943689 742.65209552 367.9595243 745.06640625 365.60546875 C745.57872299 365.09502518 746.09103973 364.5845816 746.61888123 364.05867004 C747.7057272 362.97854159 748.79616262 361.90201465 749.88989258 360.82885742 C751.53906572 359.21049645 753.17765533 357.58203835 754.81445312 355.95117188 C759.72984185 351.07287688 764.70564591 346.32268979 769.96850586 341.81762695 C774.5089242 337.75520483 778.7237103 333.33733802 783 329 C788.62961722 323.29001435 794.2531727 317.63768799 800.3515625 312.42138672 C802.32498964 310.71977345 804.17691298 308.923568 806 307.0625 C806.5775 306.47597656 807.155 305.88945312 807.75 305.28515625 C808.1625 304.86105469 808.575 304.43695313 809 304 C812.30947039 305.1031568 812.63862887 305.52382822 814.4609375 308.296875 C814.92556396 308.99699707 815.39019043 309.69711914 815.86889648 310.41845703 C816.36591064 311.18786621 816.8629248 311.95727539 817.375 312.75 C817.90101807 313.55421387 818.42703613 314.35842773 818.96899414 315.18701172 C820.65823868 317.78366041 822.33111546 320.39022568 824 323 C824.53512207 323.83241211 825.07024414 324.66482422 825.62158203 325.52246094 C871.17261829 396.6759857 897.21279743 477.82432928 903.25 591.75 C903.25101212 593.17548157 903.25101212 593.17548157 903.25204468 594.62976074 C903.15659426 680.3281823 881.10070457 768.7469783 836.49267578 842.3137207 C835.65518799 843.69950317 835.65518799 843.69950317 834.80078125 845.11328125 C834.30747314 845.91548096 833.81416504 846.71768066 833.3059082 847.54418945 C831.84731371 850.28713243 830.90806173 853.03395167 830 856 C836.28673813 863.14883139 842.84602181 869.94370161 849.625 876.625 C859.65302723 886.5097697 859.65302723 886.5097697 863.4921875 890.9921875 C867.87540395 896.10873737 872.70516444 900.77298389 877.5 905.5 C887.66084239 915.51712468 887.66084239 915.51712468 891.46875 919.96875 C896.00933836 925.27057041 901.03315519 930.10306387 906 935 C911.5768291 940.49833486 917.07773614 945.99392784 922.171875 951.94921875 C926.0751726 956.32791798 930.32437479 960.38343597 934.5 964.5 C944.66084239 974.51712468 944.66084239 974.51712468 948.46875 978.96875 C953.00933836 984.27057041 958.03315519 989.10306387 963 994 C970.42588519 1001.32136536 977.79042992 1008.59120718 984 1017 C982.58460657 1020.2239517 980.88585072 1022.35666792 978.375 1024.8125 C977.42753906 1025.75029297 977.42753906 1025.75029297 976.4609375 1026.70703125 C974.49494607 1028.53883597 972.49943614 1030.28392359 970.45703125 1032.02734375 C966.9468475 1035.08118727 963.63347197 1038.3025822 960.36328125 1041.609375 C959.87138306 1042.10676682 959.37948486 1042.60415863 958.87268066 1043.11662292 C956.83261312 1045.18438229 954.79629745 1047.2557499 952.7644043 1049.33154297 C951.26013746 1050.86610025 949.74963131 1052.39429785 948.23828125 1053.921875 C946.908573 1055.27684082 946.908573 1055.27684082 945.55200195 1056.65917969 C943.15348574 1058.85921541 940.84974896 1060.4487938 938 1062 C936.47350752 1060.6731494 934.95415113 1059.33808862 933.4375 1058 C932.59058594 1057.2575 931.74367188 1056.515 930.87109375 1055.75 C928.69440987 1053.66512184 926.76778764 1051.62238168 924.81640625 1049.34375 C920.31937347 1044.12099424 915.40528022 1039.33589861 910.5 1034.5 C905.0894859 1029.16601368 899.78827169 1023.83955219 894.84570312 1018.06835938 C890.93450948 1013.68533919 886.68169376 1009.62254675 882.5 1005.5 C877.0894859 1000.16601368 871.78827169 994.83955219 866.84570312 989.06835938 C862.93450948 984.68533919 858.68169376 980.62254675 854.5 976.5 C849.0894859 971.16601368 843.78827169 965.83955219 838.84570312 960.06835938 C834.93450948 955.68533919 830.68169376 951.62254675 826.5 947.5 C821.06982842 942.14663424 815.73025268 936.80361737 810.76513672 931.01416016 C807.26060117 927.01520881 803.53739721 923.22995512 799.8125 919.4375 C799.01908203 918.60669922 798.22566406 917.77589844 797.40820312 916.91992188 C796.64056641 916.14068359 795.87292969 915.36144531 795.08203125 914.55859375 C794.39343018 913.85017334 793.7048291 913.14175293 792.99536133 912.41186523 C791.11858305 910.7713778 791.11858305 910.7713778 788.88671875 911.12890625 C785.89065815 912.51218061 784.18509283 915.02770813 782.1875 917.5625 C770.41939682 931.96461905 757.35979012 946.05364221 743.16796875 958.109375 C740.90074155 960.08656053 738.71255235 962.13854225 736.52319336 964.20117188 C728.49313032 971.74712357 719.98086358 978.53078326 711.15625 985.125 C708.75288898 986.89403352 708.75288898 986.89403352 708 990 C708.6297876 990.62455078 709.2595752 991.24910156 709.90844727 991.89257812 C712.27935645 994.24628314 714.647874 996.60234573 717.01489258 998.95996094 C718.03317292 999.97326152 719.05235474 1000.98565712 720.07250977 1001.99707031 C725.29325796 1007.1742482 730.4052174 1012.37544626 735.18725586 1017.96679688 C739.08561857 1022.3392635 743.33002707 1026.3890083 747.5 1030.5 C752.92074763 1035.8440751 758.23352025 1041.18065411 763.18554688 1046.96289062 C766.92664807 1051.16307206 770.99450544 1055.05428894 775 1059 C784.62910795 1068.48538992 784.62910795 1068.48538992 788.46875 1072.96875 C792.86142928 1078.09182794 797.69721559 1082.76514747 802.5 1087.5 C807.92074763 1092.8440751 813.23352025 1098.18065411 818.18554688 1103.96289062 C821.92664807 1108.16307206 825.99450544 1112.05428894 830 1116 C835.90646397 1121.81830779 841.63168541 1127.6796779 847 1134 C847.73089844 1134.8353125 848.46179687 1135.670625 849.21484375 1136.53125 C850.80989583 1138.35416667 852.40494792 1140.17708333 854 1142 C852.49089988 1145.54120058 850.42880686 1147.81604365 847.7109375 1150.51953125 C846.85113281 1151.37740234 845.99132813 1152.23527344 845.10546875 1153.11914062 C844.20441406 1154.00794922 843.30335938 1154.89675781 842.375 1155.8125 C841.49714844 1156.68970703 840.61929688 1157.56691406 839.71484375 1158.47070312 C835.23278274 1162.92279493 830.67986885 1167.214681 825.88916016 1171.33129883 C822.6164462 1174.22209747 819.56502155 1177.32972601 816.5 1180.4375 C815.86835937 1181.07365234 815.23671875 1181.70980469 814.5859375 1182.36523438 C813.05494226 1183.90782806 811.52712333 1185.45357314 810 1187 C804.60701932 1185.55038301 801.83472672 1181.95224171 798.25 1177.9375 C791.98305049 1171.07399718 785.53070459 1164.44908451 778.89941406 1157.93725586 C775.69285168 1154.76975074 772.58934932 1151.57992659 769.65625 1148.15625 C765.21343626 1142.99815333 760.34513588 1138.27660496 755.5 1133.5 C750.0894859 1128.16601368 744.78827169 1122.83955219 739.84570312 1117.06835938 C735.93450948 1112.68533919 731.68169376 1108.62254675 727.5 1104.5 C722.0894859 1099.16601368 716.78827169 1093.83955219 711.84570312 1088.06835938 C707.93450948 1083.68533919 703.68169376 1079.62254675 699.5 1075.5 C694.07925237 1070.1559249 688.76647975 1064.81934589 683.81445312 1059.03710938 C680.07335193 1054.83692794 676.00549456 1050.94571106 672 1047 C666.63350845 1041.71360534 661.35280193 1036.43487008 656.47265625 1030.69140625 C655.04541597 1029.05216211 653.55487662 1027.51774524 652 1026 C646.25249024 1027.59392604 641.45669115 1030.44968107 636.3125 1033.375 C577.51056569 1065.9938605 509.68571555 1082.5892631 443 1088 C442.15904785 1088.07057617 441.3180957 1088.14115234 440.45166016 1088.21386719 C350.78330088 1095.38733593 260.05361715 1074.91457771 180 1035 C179.08621582 1034.54512207 178.17243164 1034.09024414 177.23095703 1033.62158203 C147.82250873 1018.87155033 120.6248735 1000.58601021 95 980 C93.46666016 978.77023437 93.46666016 978.77023437 91.90234375 977.515625 C89.25079338 975.36386326 86.6223422 973.18722765 84 971 C82.94404281 970.13147103 81.8880515 969.26298355 80.83203125 968.39453125 C74.46389943 963.12057049 68.4722285 957.65483781 62.73046875 951.703125 C60.59355891 949.58761482 58.44341671 947.63586077 56.1640625 945.68359375 C51.88564655 941.97761005 48.03001213 937.96309562 44.1875 933.8125 C43.49245361 933.06637451 42.79740723 932.32024902 42.08129883 931.55151367 C40.69044578 930.05682483 39.30131972 928.56052681 37.9140625 927.0625 C36.25329558 925.27293891 34.58285173 923.49345077 32.90625 921.71875 C26.68272168 915.06601283 20.99172765 908.12903917 15.4609375 900.90234375 C13.94327451 898.92613553 12.41025993 896.96256134 10.875 895 C-9.51411672 868.81936208 -26.18429416 840.66287707 -41 811 C-41.50015625 810.00758301 -42.0003125 809.01516602 -42.515625 807.99267578 C-65.8974341 761.40976376 -79.99287352 710.48067293 -87.25 659 C-87.40114258 657.92935303 -87.55228516 656.85870605 -87.70800781 655.75561523 C-88.18383533 652.17482517 -88.60853464 648.59079024 -89 645 C-89.08720306 644.20623962 -89.17440613 643.41247925 -89.26425171 642.59466553 C-90.98487429 626.43069081 -91.36187395 610.37146443 -91.3125 594.125 C-91.31067719 592.87542511 -91.30885437 591.62585022 -91.30697632 590.33840942 C-91.25890084 570.71343568 -90.62253319 551.46508145 -88 532 C-87.75056641 530.07486572 -87.75056641 530.07486572 -87.49609375 528.11083984 C-80.69488883 476.33902114 -65.7022589 426.01714865 -43 379 C-42.45714355 377.87464844 -42.45714355 377.87464844 -41.90332031 376.7265625 C-39.665382 372.11790867 -37.35384143 367.55039853 -35 363 C-34.59362305 362.21189941 -34.18724609 361.42379883 -33.76855469 360.61181641 C-32.45552455 358.07155907 -31.13558489 355.5350336 -29.8125 353 C-29.40829834 352.22229248 -29.00409668 351.44458496 -28.58764648 350.64331055 C-26.26461699 346.22684502 -23.81214325 342.12347277 -20.8269043 338.1171875 C-19.50558235 334.73410396 -20.0750137 332.47062712 -21 329 C-22.73037697 326.76853087 -24.28690459 325.02888001 -26.3203125 323.12890625 C-26.85719696 322.60288315 -27.39408142 322.07686005 -27.94723511 321.53489685 C-29.65948344 319.86262361 -31.3910175 318.21219839 -33.125 316.5625 C-35.38261229 314.38144409 -37.63255814 312.19254897 -39.8828125 310.00390625 C-40.70250519 309.21114792 -40.70250519 309.21114792 -41.53875732 308.40237427 C-44.9609475 305.07598972 -48.15094804 301.63794729 -51.23779297 297.99584961 C-55.10078783 293.62067878 -59.34555279 289.59568558 -63.5 285.5 C-68.9105141 280.16601368 -74.21172831 274.83955219 -79.15429688 269.06835938 C-83.06549052 264.68533919 -87.31830624 260.62254675 -91.5 256.5 C-96.9105141 251.16601368 -102.21172831 245.83955219 -107.15429688 240.06835938 C-111.06549052 235.68533919 -115.31830624 231.62254675 -119.5 227.5 C-124.9105141 222.16601368 -130.21172831 216.83955219 -135.15429688 211.06835938 C-139.06549052 206.68533919 -143.31830624 202.62254675 -147.5 198.5 C-153.02618278 193.05198105 -158.44888049 187.61001089 -163.49414062 181.7109375 C-166.22936582 178.60321082 -169.32333649 175.86879098 -172.375 173.078125 C-174 171 -174 171 -173.83618164 169.12524414 C-172.76988571 166.41514017 -171.31821255 164.96234129 -169.24609375 162.91796875 C-168.0869043 161.76651367 -168.0869043 161.76651367 -166.90429688 160.59179688 C-166.09025391 159.79837891 -165.27621094 159.00496094 -164.4375 158.1875 C-163.65052734 157.40568359 -162.86355469 156.62386719 -162.05273438 155.81835938 C-158.44580776 152.25900969 -154.8048255 148.78652643 -150.95703125 145.48828125 C-148.03508573 142.9727786 -145.31868359 140.33655273 -142.640625 137.5625 C-141.91746094 136.81355469 -141.19429687 136.06460938 -140.44921875 135.29296875 C-138.95995772 133.74022235 -137.47838324 132.18007333 -136.00390625 130.61328125 C-135.28589844 129.87464844 -134.56789062 129.13601562 -133.828125 128.375 C-133.1877832 127.70210938 -132.54744141 127.02921875 -131.88769531 126.3359375 C-130 125 -130 125 -127.96118164 125.10913086 C-125.7688084 126.10501907 -124.47843106 127.16321143 -122.79296875 128.87890625 C-122.20580078 129.47123047 -121.61863281 130.06355469 -121.01367188 130.67382812 C-120.1097168 131.6087207 -120.1097168 131.6087207 -119.1875 132.5625 C-118.59646484 133.15869141 -118.00542969 133.75488281 -117.39648438 134.36914062 C-114.38938351 137.42870999 -111.49890342 140.55154702 -108.70703125 143.80859375 C-104.23852005 148.96985861 -99.35894525 153.70978099 -94.5 158.5 C-89.07925237 163.8440751 -83.76647975 169.18065411 -78.81445312 174.96289062 C-75.07335193 179.16307206 -71.00549456 183.05428894 -67 187 C-57.37089205 196.48538992 -57.37089205 196.48538992 -53.53125 200.96875 C-49.13857072 206.09182794 -44.30278441 210.76514747 -39.5 215.5 C-34.07925237 220.8440751 -28.76647975 226.18065411 -23.81445312 231.96289062 C-20.07335193 236.16307206 -16.00549456 240.05428894 -12 244 C-6.67535954 249.24516822 -1.45976599 254.49563954 3.40917969 260.16894531 C5.87669171 263.00908346 8.47933074 265.70155469 11.125 268.375 C11.62386719 268.89449219 12.12273437 269.41398437 12.63671875 269.94921875 C15.54949116 272.89241176 18.02043668 274.79009613 22 276 C23.19882812 274.60201172 23.19882812 274.60201172 24.421875 273.17578125 C35.27900547 260.55225926 46.495986 248.41653173 58.25 236.625 C58.72194794 236.15037323 59.19389587 235.67574646 59.68014526 235.18673706 C65.27595464 229.56683771 70.94657449 224.12440196 77 219 C77.82951172 218.2879541 77.82951172 218.2879541 78.67578125 217.56152344 C84.29051267 212.74644509 89.95732946 207.98951329 95.6875 203.3125 C96.47511719 202.66925781 97.26273437 202.02601563 98.07421875 201.36328125 C100 200 100 200 102 200 C99.58520719 193.92468793 95.40925693 190.10107247 90.75 185.625 C82.28027028 177.40655371 82.28027028 177.40655371 78.578125 173.0859375 C74.31898422 168.12427063 69.65574211 163.58625342 65 159 C59.74992084 153.82828024 54.62928228 148.6496079 49.83203125 143.0546875 C46.08310793 138.8501381 42.0115541 134.95168016 38 131 C32.74992084 125.82828024 27.62928228 120.6496079 22.83203125 115.0546875 C19.08310793 110.8501381 15.0115541 106.95168016 11 103 C1.37089205 93.51461008 1.37089205 93.51461008 -2.46875 89.03125 C-6.86142928 83.90817206 -11.69721559 79.23485253 -16.5 74.5 C-22.00161052 69.07620575 -27.40937243 63.66065906 -32.43603516 57.79101562 C-34.81360712 55.06827634 -37.35959183 52.53155574 -39.9375 50 C-40.67709961 49.26716797 -40.67709961 49.26716797 -41.43164062 48.51953125 C-42.61873229 47.34396475 -43.80900498 46.17161174 -45 45 C-42.76590588 40.77497847 -39.92291285 37.86543833 -36.375 34.75 C-30.05266882 29.06910435 -24.0451893 23.11431708 -18.08935547 17.05175781 C-14.09628328 13.01009419 -10.00941761 9.1704285 -5.68188477 5.48754883 C-3.83044487 3.90677828 -3.83044487 3.90677828 -1.75 1.5 C-1.1725 1.005 -0.595 0.51 0 0 Z " fill="#000100" transform="translate(220,46)"/>
<path d="M0 0 C2.55853171 1.22004777 5.13168078 2.40454549 7.70849609 3.58544922 C44.89071791 20.75578698 44.89071791 20.75578698 55.41552734 32.15185547 C54.0584718 35.27341996 52.6417763 37.04678433 50.00927734 39.18310547 C46.47213528 42.17754523 43.1461756 45.33166729 39.88427734 48.62060547 C39.39967041 49.10851562 38.91506348 49.59642578 38.41577148 50.09912109 C36.9136981 51.61474442 35.41417467 53.13284477 33.91552734 54.65185547 C28.26326018 60.38092471 22.63495598 66.04694875 16.51123047 71.27880859 C11.77316458 75.51348258 7.37730359 80.12945334 2.91552734 84.65185547 C-2.80147927 90.44654383 -8.49574095 96.1752251 -14.69433594 101.46240234 C-16.79856596 103.34321761 -18.74159304 105.32899732 -20.68994141 107.37060547 C-21.70024414 108.42634766 -21.70024414 108.42634766 -22.73095703 109.50341797 C-24.1128268 110.95801773 -25.48499133 112.42188881 -26.84814453 113.89404297 C-27.5178125 114.58755859 -28.18748047 115.28107422 -28.87744141 115.99560547 C-29.47065186 116.62660156 -30.0638623 117.25759766 -30.67504883 117.90771484 C-32.58447266 119.15185547 -32.58447266 119.15185547 -35.046875 118.97436523 C-37.4662227 118.19018374 -39.62770426 117.29968522 -41.89306641 116.14794922 C-42.71073486 115.74092773 -43.52840332 115.33390625 -44.37084961 114.91455078 C-45.68315552 114.2585791 -45.68315552 114.2585791 -47.02197266 113.58935547 C-71.23167924 101.83367049 -96.87436365 94.45426232 -123.58447266 91.15185547 C-124.29474609 91.05759277 -125.00501953 90.96333008 -125.73681641 90.86621094 C-134.07326471 89.88057756 -142.45181052 89.90822856 -150.83447266 89.90185547 C-151.63437622 89.90118073 -152.43427979 89.90050598 -153.25842285 89.89981079 C-166.26932805 89.91719289 -178.77936264 90.72757538 -191.58447266 93.15185547 C-192.5098584 93.31282715 -193.43524414 93.47379883 -194.38867188 93.63964844 C-226.13225948 99.18319393 -256.38526801 110.87087931 -283.58447266 128.15185547 C-284.65697266 128.82861328 -285.72947266 129.50537109 -286.83447266 130.20263672 C-297.98007288 137.44437437 -308.19717196 145.54441929 -317.87353516 154.62841797 C-320.12702442 156.7260463 -322.4178743 158.73244657 -324.77197266 160.71435547 C-346.40214897 179.64075974 -362.11605159 206.64934726 -374.58447266 232.15185547 C-375.11596924 233.23781006 -375.11596924 233.23781006 -375.65820312 234.34570312 C-402.34024046 289.80007564 -403.61394322 353.0918356 -385.58447266 411.15185547 C-385.36597656 411.86873535 -385.14748047 412.58561523 -384.92236328 413.32421875 C-375.33799883 444.28171593 -358.04629507 473.0276804 -336.58447266 497.15185547 C-336.14280762 497.65523437 -335.70114258 498.15861328 -335.24609375 498.67724609 C-294.74107047 544.75744052 -234.6476422 574.27808502 -173.58447266 579.15185547 C-166.92165705 579.49815257 -160.25444308 579.49247637 -153.58447266 579.46435547 C-152.68472717 579.46253265 -151.78498169 579.46070984 -150.85797119 579.45883179 C-136.57567615 579.41023532 -122.66052522 578.7337155 -108.58447266 576.15185547 C-107.67810059 575.99620117 -106.77172852 575.84054687 -105.83789062 575.68017578 C-74.4817156 570.17870715 -43.92613319 558.04168171 -17.58447266 540.15185547 C-16.54516602 539.45406982 -16.54516602 539.45406982 -15.48486328 538.7421875 C6.97350276 523.589372 27.46623652 505.14420553 43.41552734 483.15185547 C44.27044548 482.00300802 45.12592163 480.85457563 45.98193359 479.70654297 C67.54266349 450.47977578 81.58957501 416.75576647 88.41552734 381.15185547 C88.58068848 380.33281738 88.74584961 379.5137793 88.91601562 378.66992188 C94.29534167 350.91660479 94.16595632 317.82418037 88.41552734 290.15185547 C88.21685059 289.17023438 88.01817383 288.18861328 87.81347656 287.17724609 C83.34415129 265.68431107 76.06437934 245.28746401 67.41552734 225.15185547 C72.47667685 219.19929388 77.81549189 213.59885277 83.35302734 208.08935547 C84.49288086 206.94370117 84.49288086 206.94370117 85.65576172 205.77490234 C89.13163122 202.30496943 92.62864657 198.91674446 96.35693359 195.71826172 C101.30426656 191.45851795 105.83656881 186.80019216 110.41552734 182.15185547 C119.90146337 172.52219314 119.90146337 172.52219314 124.34521484 168.72216797 C129.70307483 164.12856325 134.58911259 159.04821957 139.54052734 154.02685547 C151.82881282 141.56624679 151.82881282 141.56624679 156.41552734 138.15185547 C157.07552734 138.15185547 157.73552734 138.15185547 158.41552734 138.15185547 C159.83274894 140.20760548 161.10376942 142.24543072 162.35302734 144.40185547 C162.74635254 145.07297363 163.13967773 145.7440918 163.54492188 146.43554688 C164.8451574 148.66865948 166.1305647 150.90992508 167.41552734 153.15185547 C168.06884033 154.27575684 168.06884033 154.27575684 168.73535156 155.42236328 C200.05601334 209.47891036 214.94436497 272.43196972 214.72802734 334.65185547 C214.72529312 336.29178467 214.72529312 336.29178467 214.72250366 337.96484375 C214.67426131 355.20009062 214.11832383 372.09918727 211.41552734 389.15185547 C211.2439209 390.23644043 211.07231445 391.32102539 210.89550781 392.43847656 C204.57994201 430.80031816 192.32389079 467.88177475 174.35253906 502.34277344 C173.44005336 504.10450327 172.55433645 505.88001706 171.66943359 507.65576172 C159.23732316 532.01200388 142.66929265 554.83279286 124.41552734 575.15185547 C123.95533203 575.66844727 123.49513672 576.18503906 123.02099609 576.71728516 C111.55317445 589.5499391 99.61159934 602.59125438 85.97021484 613.13232422 C83.78643749 614.85864362 81.72224078 616.64408134 79.64599609 618.49560547 C75.56183406 622.09048909 71.28215528 625.30944683 66.85302734 628.46435547 C66.06710205 629.02630615 65.28117676 629.58825684 64.47143555 630.16723633 C62.12520246 631.83708644 59.77234321 633.49698303 57.41552734 635.15185547 C56.77164063 635.60496094 56.12775391 636.05806641 55.46435547 636.52490234 C30.16690389 654.19771835 2.44490328 667.84350049 -26.58447266 678.15185547 C-27.60379883 678.51408203 -28.623125 678.87630859 -29.67333984 679.24951172 C-63.44990973 691.05660677 -99.70780242 698.21967856 -135.52978516 698.35498047 C-136.73851288 698.36068054 -137.9472406 698.36638062 -139.19259644 698.37225342 C-141.74232119 698.38164603 -144.29205777 698.38821437 -146.84179688 698.39208984 C-150.65078317 698.40170728 -154.45920825 698.43275079 -158.26806641 698.46435547 C-179.06502723 698.55462372 -199.56358266 696.97115052 -219.95947266 692.77685547 C-221.56737671 692.45442871 -221.56737671 692.45442871 -223.20776367 692.12548828 C-226.33782336 691.48693839 -229.4619677 690.82629594 -232.58447266 690.15185547 C-233.89375732 689.87003418 -233.89375732 689.87003418 -235.22949219 689.58251953 C-258.82800375 684.37757949 -281.5197496 675.89768583 -303.58447266 666.15185547 C-304.36999512 665.80799805 -305.15551758 665.46414063 -305.96484375 665.10986328 C-337.46968219 651.21371993 -366.81587226 630.89204072 -392.58447266 608.15185547 C-393.31625732 607.50764648 -394.04804199 606.8634375 -394.80200195 606.19970703 C-401.29157223 600.42806909 -407.50454574 594.41500195 -413.64697266 588.27685547 C-415.04012695 586.90207031 -415.04012695 586.90207031 -416.46142578 585.49951172 C-422.61122493 579.36265952 -428.17322559 572.94265653 -433.58447266 566.15185547 C-434.44794158 565.12437322 -435.31633457 564.10096344 -436.19384766 563.08544922 C-454.38984594 541.86785268 -468.07603393 518.04388862 -480.58447266 493.15185547 C-480.92816895 492.47380859 -481.27186523 491.79576172 -481.62597656 491.09716797 C-523.63188699 407.57821647 -526.95058781 307.25046312 -498.58447266 219.15185547 C-479.67981424 162.58611785 -447.76379024 113.52288138 -405.97265625 71.36581421 C-404.56739588 69.94769436 -403.16571654 68.52602873 -401.76416016 67.10424805 C-395.68349713 61.01647634 -389.33171779 55.48642314 -382.58447266 50.15185547 C-381.39244853 49.18647207 -380.20094346 48.22044693 -379.01025391 47.25341797 C-298.69898664 -16.63283479 -197.42628168 -42.58387137 0 0 Z " fill="#4f46e5" transform="translate(776.58447265625,304.84814453125)"/>
<path d="M0 0 C0.66 0.66 1.32 1.32 2 2 C1.67197417 5.2777826 0.51491351 6.81739558 -1.89453125 8.96875 C-2.51070312 9.53013672 -3.126875 10.09152344 -3.76171875 10.66992188 C-4.43847656 11.27384766 -5.11523438 11.87777344 -5.8125 12.5 C-13.43668149 19.45846712 -20.75209346 26.68009214 -27.99536133 34.03320312 C-31.52516499 37.59910908 -35.04712454 41.10327002 -38.86328125 44.36328125 C-44.44213179 49.15171345 -49.52728248 54.45820546 -54.6875 59.6875 C-56.70926377 61.73604633 -58.73445857 63.78111319 -60.76171875 65.82421875 C-61.64819092 66.72229248 -62.53466309 67.62036621 -63.44799805 68.5456543 C-70.67135748 75.49260086 -70.67135748 75.49260086 -77.0859375 75.50390625 C-78.25680908 75.5203418 -79.42768066 75.53677734 -80.6340332 75.55371094 C-82.48581177 75.55806152 -82.48581177 75.55806152 -84.375 75.5625 C-94.64004347 75.76389075 -104.07410985 76.20130218 -114 79 C-115.15113281 79.30421875 -116.30226563 79.6084375 -117.48828125 79.921875 C-134.73613588 85.03509506 -150.54623695 94.14117399 -164 106 C-164.66644531 106.5671875 -165.33289063 107.134375 -166.01953125 107.71875 C-185.10835923 125.24291995 -198.47608525 154.56031262 -200.2175293 180.203125 C-200.73430162 194.88158988 -200.47320699 208.93939076 -196 223 C-195.79101074 223.67385742 -195.58202148 224.34771484 -195.36669922 225.04199219 C-190.50495527 240.28638182 -182.83163858 254.18529192 -172 266 C-170.73542969 267.38638672 -170.73542969 267.38638672 -169.4453125 268.80078125 C-162.94090528 275.61626881 -155.95802798 280.98358375 -148 286 C-146.89785156 286.70125 -145.79570313 287.4025 -144.66015625 288.125 C-118.28850255 304.07486616 -85.84314842 308.1320551 -56 301 C-39.9787695 296.92848894 -24.28134531 289.1148376 -12 278 C-11.19820312 277.33871094 -10.39640625 276.67742187 -9.5703125 275.99609375 C9.92912845 259.50357594 23.61145435 234.32324662 27 209 C27.47395822 202.91166303 27.81460849 196.81322619 27.96582031 190.70825195 C28.24003187 184.37263825 28.54420568 180.02898217 33.21728516 175.50830078 C33.80558105 175.01056152 34.39387695 174.51282227 35 174 C35.58442871 173.4829248 36.16885742 172.96584961 36.77099609 172.43310547 C38.07603162 171.28963612 39.38999766 170.15630903 40.7109375 169.03125 C43.41846176 166.62866875 45.98139887 164.09825163 48.53125 161.53125 C49.2586438 160.79902222 49.2586438 160.79902222 50.00073242 160.05200195 C51.50239417 158.53653862 53.00163596 157.01872356 54.5 155.5 C65.53735015 144.31267615 65.53735015 144.31267615 69.9921875 140.5078125 C75.51302819 135.79144526 80.52889551 130.53966195 85.625 125.375 C87.63501075 123.33813796 89.64849786 121.30480225 91.6640625 119.2734375 C92.54529785 118.38060059 93.4265332 117.48776367 94.33447266 116.56787109 C97.1552455 113.85044219 99.84770901 111.32821903 103 109 C103.99 109.33 104.98 109.66 106 110 C107.28012103 112.81201941 108.36034831 115.52952919 109.375 118.4375 C109.68026611 119.29714355 109.98553223 120.15678711 110.30004883 121.04248047 C117.60591258 141.96512466 122.34890119 163.77771469 123 186 C123.03996094 187.00160156 123.07992188 188.00320313 123.12109375 189.03515625 C124.01001499 232.06940203 113.25361617 276.66704925 88 312 C87.45907715 312.7636084 86.9181543 313.5272168 86.36083984 314.31396484 C84.54529939 316.86485129 82.71424402 319.4036569 80.875 321.9375 C80.30096436 322.73124023 79.72692871 323.52498047 79.13549805 324.34277344 C75.90487241 328.71685652 72.54061426 332.6692691 68.60083008 336.42114258 C66.88579859 338.1126339 65.35192021 339.89838618 63.8125 341.75 C36.4253583 373.24823582 -3.70674774 392.83229895 -43.8125 401.8125 C-44.68197266 402.00763184 -45.55144531 402.20276367 -46.44726562 402.40380859 C-60.80168811 405.41781168 -75.12103374 406.3856243 -89.75 406.3125 C-90.53436432 406.31034485 -91.31872864 406.3081897 -92.12686157 406.30596924 C-104.63999477 406.2510446 -116.72491268 405.59293456 -129 403 C-129.97404785 402.80132324 -130.9480957 402.60264648 -131.95166016 402.39794922 C-174.21766238 393.59665255 -210.92974381 372.71569461 -242 343 C-242.67804688 342.36320312 -243.35609375 341.72640625 -244.0546875 341.0703125 C-249.19034297 336.12398995 -253.56125842 330.56673861 -258 325 C-258.76054687 324.1028125 -259.52109375 323.205625 -260.3046875 322.28125 C-273.3508559 306.36920198 -282.85134919 287.21598116 -290 268 C-290.27247559 267.28392578 -290.54495117 266.56785156 -290.82568359 265.83007812 C-295.68786308 252.89158726 -298.57907877 239.58714831 -301 226 C-301.13422363 225.25459961 -301.26844727 224.50919922 -301.40673828 223.74121094 C-310.42713187 170.98903579 -294.10276904 114.41388837 -264 71 C-261.46943336 67.53252666 -258.79741703 64.25380944 -256 61 C-255.19433594 60.01257813 -254.38867188 59.02515625 -253.55859375 58.0078125 C-242.74533684 44.80585985 -230.85704922 32.98946879 -217 23 C-216.0112085 22.28529541 -216.0112085 22.28529541 -215.00244141 21.55615234 C-153.03547247 -22.66433924 -69.54372932 -33.49160455 0 0 Z " fill="#000100" transform="translate(714,446)"/>
</svg>
